<svg width="25" height="32" viewBox="0 0 25 32" fill="none" xmlns="http://www.w3.org/2000/svg">
<g clip-path="url(#clip0_11_241)">
<path d="M17.7137 4.23825H20.1451C22.2908 4.23825 24.0353 5.99639 24.0353 8.15883V27.7618C24.0353 29.9242 22.2908 31.6824 20.1451 31.6824H4.58429C2.4386 31.6824 0.694092 29.9242 0.694092 27.7618V8.15883C0.694092 5.99639 2.4386 4.23825 4.58429 4.23825H7.01566H7.59919C8.04899 2.00229 10.0123 0.317657 12.3647 0.317657C14.717 0.317657 16.6804 2.00229 17.1302 4.23825H17.7137ZM4.58429 7.17869C4.04939 7.17869 3.61174 7.61975 3.61174 8.15883V27.7618C3.61174 28.3009 4.04939 28.7419 4.58429 28.7419H20.1451C20.68 28.7419 21.1176 28.3009 21.1176 27.7618V8.15883C21.1176 7.61975 20.68 7.17869 20.1451 7.17869H19.1725V8.64891C19.1725 9.46366 18.5221 10.1191 17.7137 10.1191H12.3647H7.01566C6.20723 10.1191 5.55684 9.46366 5.55684 8.64891V7.17869H4.58429ZM12.3647 6.68861C12.7516 6.68861 13.1226 6.53372 13.3962 6.258C13.6698 5.98228 13.8235 5.60832 13.8235 5.21839C13.8235 4.82847 13.6698 4.45451 13.3962 4.17879C13.1226 3.90307 12.7516 3.74817 12.3647 3.74817C11.9778 3.74817 11.6067 3.90307 11.3331 4.17879C11.0596 4.45451 10.9059 4.82847 10.9059 5.21839C10.9059 5.60832 11.0596 5.98228 11.3331 6.258C11.6067 6.53372 11.9778 6.68861 12.3647 6.68861Z" fill="#40632F"/>
<ellipse cx="7.5626" cy="22.5854" rx="1.27647" ry="1.25581" fill="#40632F"/>
<rect x="9.81152" y="21.6359" width="8.81373" height="1.96029" rx="0.980147" fill="#40632F"/>
<ellipse cx="7.5626" cy="16.7658" rx="1.27647" ry="1.25581" fill="#40632F"/>
<rect x="9.81152" y="15.8163" width="8.81373" height="1.96029" rx="0.980147" fill="#40632F"/>
</g>
<defs>
<clipPath id="clip0_11_241">
<rect width="23.3412" height="31.3647" fill="white" transform="translate(0.694092 0.317657)"/>
</clipPath>
</defs>
</svg>
