<svg width="31" height="31" viewBox="0 0 31 31" fill="none" xmlns="http://www.w3.org/2000/svg">
<g clip-path="url(#clip0_11_276)">
<path d="M15.5 27.125C24.0613 27.125 31 21.4881 31 14.5312C31 7.57441 24.0613 1.9375 15.5 1.9375C6.93864 1.9375 -2.81897e-05 7.57441 -2.81897e-05 14.5312C-2.81897e-05 17.2619 1.07165 19.7867 2.88806 21.8514C2.77302 23.3348 2.19782 24.6547 1.59235 25.6598C1.25935 26.2168 0.920284 26.6648 0.672042 26.9676C0.544894 27.1189 0.448019 27.234 0.375362 27.3127C0.339034 27.349 0.314816 27.3793 0.296652 27.3975L0.278487 27.4156C-2.81883e-05 27.6941 -0.0787391 28.1059 0.0726281 28.4691C0.223995 28.8324 0.575167 29.0686 0.968722 29.0686C2.70642 29.0686 4.45622 28.5297 5.90935 27.9C7.29587 27.2945 8.47653 26.574 9.19704 26.0473C11.1224 26.7436 13.2537 27.1311 15.5 27.1311V27.125ZM7.74997 12.5937C8.26383 12.5937 8.75664 12.7979 9.11999 13.1612C9.48334 13.5246 9.68747 14.0174 9.68747 14.5312C9.68747 15.0451 9.48334 15.5379 9.11999 15.9013C8.75664 16.2646 8.26383 16.4687 7.74997 16.4687C7.23611 16.4687 6.7433 16.2646 6.37995 15.9013C6.0166 15.5379 5.81247 15.0451 5.81247 14.5312C5.81247 14.0174 6.0166 13.5246 6.37995 13.1612C6.7433 12.7979 7.23611 12.5937 7.74997 12.5937ZM15.5 12.5937C16.0138 12.5937 16.5066 12.7979 16.87 13.1612C17.2333 13.5246 17.4375 14.0174 17.4375 14.5312C17.4375 15.0451 17.2333 15.5379 16.87 15.9013C16.5066 16.2646 16.0138 16.4687 15.5 16.4687C14.9861 16.4687 14.4933 16.2646 14.13 15.9013C13.7666 15.5379 13.5625 15.0451 13.5625 14.5312C13.5625 14.0174 13.7666 13.5246 14.13 13.1612C14.4933 12.7979 14.9861 12.5937 15.5 12.5937ZM21.3125 14.5312C21.3125 14.0174 21.5166 13.5246 21.88 13.1612C22.2433 12.7979 22.7361 12.5937 23.25 12.5937C23.7638 12.5937 24.2566 12.7979 24.62 13.1612C24.9833 13.5246 25.1875 14.0174 25.1875 14.5312C25.1875 15.0451 24.9833 15.5379 24.62 15.9013C24.2566 16.2646 23.7638 16.4687 23.25 16.4687C22.7361 16.4687 22.2433 16.2646 21.88 15.9013C21.5166 15.5379 21.3125 15.0451 21.3125 14.5312Z" fill="#40632F"/>
</g>
<defs>
<clipPath id="clip0_11_276">
<rect width="31" height="31" fill="white"/>
</clipPath>
</defs>
</svg>
