<svg width="32" height="28" viewBox="0 0 32 28" fill="none" xmlns="http://www.w3.org/2000/svg">
<g clip-path="url(#clip0_11_270)">
<path d="M16.1556 2.6579L20.5111 4.28212L16 5.98837L11.4889 4.28212L15.8444 2.6579C15.9444 2.61962 16.0556 2.61962 16.1611 2.6579H16.1556ZM7.55556 5.05868V11.1946C7.48333 11.2165 7.41111 11.2384 7.33889 11.2657L2.00556 13.2563C0.8 13.7048 0 14.8477 0 16.1165V22.6352C0 23.8493 0.727778 24.9485 1.86111 25.4407L7.19444 27.7485C7.99444 28.0931 8.9 28.0931 9.7 27.7485L16 25.0196L22.3056 27.7485C23.1056 28.0931 24.0111 28.0931 24.8111 27.7485L30.1444 25.4407C31.2722 24.954 32.0056 23.8493 32.0056 22.6352V16.1165C32.0056 14.8423 31.2056 13.7048 30 13.2509L24.6667 11.2602C24.5944 11.2329 24.5222 11.211 24.45 11.1891V5.05868C24.45 3.78446 23.65 2.64696 22.4444 2.19305L17.1111 0.202429C16.4 -0.0600708 15.6167 -0.0600708 14.9056 0.202429L9.57222 2.19305C8.35556 2.64696 7.55556 3.78993 7.55556 5.05868ZM21.7778 11.5173L17.2 13.2235V8.3454L21.7778 6.61727V11.5173ZM8.6 13.7212L12.9556 15.3454L8.44444 17.0462L3.93333 15.3454L8.28889 13.7212C8.38889 13.6829 8.5 13.6829 8.60556 13.7212H8.6ZM9.64444 24.8993V19.4032L14.2222 17.6751V22.9196L9.64444 24.8993ZM23.4 13.7212C23.5 13.6829 23.6111 13.6829 23.7167 13.7212L28.0722 15.3454L23.5556 17.0462L19.0444 15.3454L23.4 13.7212ZM29.0667 23.0345L24.7556 24.8993V19.4032L29.3333 17.6751V22.6352C29.3333 22.8102 29.2278 22.9634 29.0667 23.0345Z" fill="#40632F"/>
</g>
<defs>
<clipPath id="clip0_11_270">
<rect width="32" height="28" fill="white"/>
</clipPath>
</defs>
</svg>
