<svg width="800" height="800" viewBox="0 0 800 800" fill="none" xmlns="http://www.w3.org/2000/svg">
<path d="M47.0588 0H0V47.0588H47.0588V0Z" stroke="black" stroke-opacity="0.1" stroke-width="0.5"/>
<path d="M94.1177 0H47.0588V47.0588H94.1177V0Z" stroke="black" stroke-opacity="0.1" stroke-width="0.5"/>
<path d="M141.176 0H94.1176V47.0588H141.176V0Z" stroke="black" stroke-opacity="0.1" stroke-width="0.5"/>
<path d="M188.235 0H141.176V47.0588H188.235V0Z" stroke="black" stroke-opacity="0.1" stroke-width="0.5"/>
<path d="M235.294 0H188.235V47.0588H235.294V0Z" stroke="black" stroke-opacity="0.1" stroke-width="0.5"/>
<path d="M282.353 0H235.294V47.0588H282.353V0Z" stroke="black" stroke-opacity="0.1" stroke-width="0.5"/>
<path d="M329.412 0H282.353V47.0588H329.412V0Z" stroke="black" stroke-opacity="0.1" stroke-width="0.5"/>
<path d="M376.471 0H329.412V47.0588H376.471V0Z" stroke="black" stroke-opacity="0.1" stroke-width="0.5"/>
<path d="M423.529 0H376.471V47.0588H423.529V0Z" stroke="black" stroke-opacity="0.1" stroke-width="0.5"/>
<path d="M470.588 0H423.529V47.0588H470.588V0Z" stroke="black" stroke-opacity="0.1" stroke-width="0.5"/>
<path d="M517.647 0H470.588V47.0588H517.647V0Z" stroke="black" stroke-opacity="0.1" stroke-width="0.5"/>
<path d="M564.706 0H517.647V47.0588H564.706V0Z" stroke="black" stroke-opacity="0.1" stroke-width="0.5"/>
<path d="M611.765 0H564.706V47.0588H611.765V0Z" stroke="black" stroke-opacity="0.1" stroke-width="0.5"/>
<path d="M658.824 0H611.765V47.0588H658.824V0Z" stroke="black" stroke-opacity="0.1" stroke-width="0.5"/>
<path d="M705.882 0H658.824V47.0588H705.882V0Z" stroke="black" stroke-opacity="0.1" stroke-width="0.5"/>
<path d="M752.941 0H705.882V47.0588H752.941V0Z" stroke="black" stroke-opacity="0.1" stroke-width="0.5"/>
<path d="M800 0H752.941V47.0588H800V0Z" stroke="black" stroke-opacity="0.1" stroke-width="0.5"/>
<path d="M847.059 0H800V47.0588H847.059V0Z" stroke="black" stroke-opacity="0.1" stroke-width="0.5"/>
<path d="M47.0588 47.0588H0V94.1177H47.0588V47.0588Z" stroke="black" stroke-opacity="0.1" stroke-width="0.5"/>
<path d="M94.1177 47.0588H47.0588V94.1177H94.1177V47.0588Z" stroke="black" stroke-opacity="0.1" stroke-width="0.5"/>
<path d="M141.176 47.0588H94.1176V94.1177H141.176V47.0588Z" stroke="black" stroke-opacity="0.1" stroke-width="0.5"/>
<path d="M188.235 47.0588H141.176V94.1177H188.235V47.0588Z" stroke="black" stroke-opacity="0.1" stroke-width="0.5"/>
<path d="M235.294 47.0588H188.235V94.1177H235.294V47.0588Z" stroke="black" stroke-opacity="0.1" stroke-width="0.5"/>
<path d="M282.353 47.0588H235.294V94.1177H282.353V47.0588Z" stroke="black" stroke-opacity="0.1" stroke-width="0.5"/>
<path d="M329.412 47.0588H282.353V94.1177H329.412V47.0588Z" stroke="black" stroke-opacity="0.1" stroke-width="0.5"/>
<path d="M376.471 47.0588H329.412V94.1177H376.471V47.0588Z" stroke="black" stroke-opacity="0.1" stroke-width="0.5"/>
<path d="M423.529 47.0588H376.471V94.1177H423.529V47.0588Z" stroke="black" stroke-opacity="0.1" stroke-width="0.5"/>
<path d="M470.588 47.0588H423.529V94.1177H470.588V47.0588Z" stroke="black" stroke-opacity="0.1" stroke-width="0.5"/>
<path d="M517.647 47.0588H470.588V94.1177H517.647V47.0588Z" stroke="black" stroke-opacity="0.1" stroke-width="0.5"/>
<path d="M564.706 47.0588H517.647V94.1177H564.706V47.0588Z" stroke="black" stroke-opacity="0.1" stroke-width="0.5"/>
<path d="M611.765 47.0588H564.706V94.1177H611.765V47.0588Z" stroke="black" stroke-opacity="0.1" stroke-width="0.5"/>
<path d="M658.824 47.0588H611.765V94.1177H658.824V47.0588Z" stroke="black" stroke-opacity="0.1" stroke-width="0.5"/>
<path d="M705.882 47.0588H658.824V94.1177H705.882V47.0588Z" stroke="black" stroke-opacity="0.1" stroke-width="0.5"/>
<path d="M752.941 47.0588H705.882V94.1177H752.941V47.0588Z" stroke="black" stroke-opacity="0.1" stroke-width="0.5"/>
<path d="M800 47.0588H752.941V94.1177H800V47.0588Z" stroke="black" stroke-opacity="0.1" stroke-width="0.5"/>
<path d="M847.059 47.0588H800V94.1177H847.059V47.0588Z" stroke="black" stroke-opacity="0.1" stroke-width="0.5"/>
<path d="M47.0588 94.1177H0V141.176H47.0588V94.1177Z" stroke="black" stroke-opacity="0.1" stroke-width="0.5"/>
<path d="M94.1177 94.1177H47.0588V141.176H94.1177V94.1177Z" stroke="black" stroke-opacity="0.1" stroke-width="0.5"/>
<path d="M141.176 94.1177H94.1176V141.176H141.176V94.1177Z" stroke="black" stroke-opacity="0.1" stroke-width="0.5"/>
<path d="M188.235 94.1177H141.176V141.176H188.235V94.1177Z" stroke="black" stroke-opacity="0.1" stroke-width="0.5"/>
<path d="M235.294 94.1177H188.235V141.176H235.294V94.1177Z" stroke="black" stroke-opacity="0.1" stroke-width="0.5"/>
<path d="M282.353 94.1177H235.294V141.176H282.353V94.1177Z" stroke="black" stroke-opacity="0.1" stroke-width="0.5"/>
<path d="M329.412 94.1177H282.353V141.176H329.412V94.1177Z" stroke="black" stroke-opacity="0.1" stroke-width="0.5"/>
<path d="M376.471 94.1177H329.412V141.176H376.471V94.1177Z" stroke="black" stroke-opacity="0.1" stroke-width="0.5"/>
<path d="M423.529 94.1177H376.471V141.176H423.529V94.1177Z" stroke="black" stroke-opacity="0.1" stroke-width="0.5"/>
<path d="M470.588 94.1177H423.529V141.176H470.588V94.1177Z" stroke="black" stroke-opacity="0.1" stroke-width="0.5"/>
<path d="M517.647 94.1177H470.588V141.176H517.647V94.1177Z" stroke="black" stroke-opacity="0.1" stroke-width="0.5"/>
<path d="M564.706 94.1177H517.647V141.176H564.706V94.1177Z" stroke="black" stroke-opacity="0.1" stroke-width="0.5"/>
<path d="M611.765 94.1177H564.706V141.176H611.765V94.1177Z" stroke="black" stroke-opacity="0.1" stroke-width="0.5"/>
<path d="M658.824 94.1177H611.765V141.176H658.824V94.1177Z" stroke="black" stroke-opacity="0.1" stroke-width="0.5"/>
<path d="M705.882 94.1177H658.824V141.176H705.882V94.1177Z" stroke="black" stroke-opacity="0.1" stroke-width="0.5"/>
<path d="M752.941 94.1177H705.882V141.176H752.941V94.1177Z" stroke="black" stroke-opacity="0.1" stroke-width="0.5"/>
<path d="M800 94.1177H752.941V141.176H800V94.1177Z" stroke="black" stroke-opacity="0.1" stroke-width="0.5"/>
<path d="M847.059 94.1177H800V141.176H847.059V94.1177Z" stroke="black" stroke-opacity="0.1" stroke-width="0.5"/>
<path d="M47.0588 141.176H0V188.235H47.0588V141.176Z" stroke="black" stroke-opacity="0.1" stroke-width="0.5"/>
<path d="M94.1177 141.176H47.0588V188.235H94.1177V141.176Z" stroke="black" stroke-opacity="0.1" stroke-width="0.5"/>
<path d="M141.176 141.176H94.1176V188.235H141.176V141.176Z" stroke="black" stroke-opacity="0.1" stroke-width="0.5"/>
<path d="M188.235 141.176H141.176V188.235H188.235V141.176Z" stroke="black" stroke-opacity="0.1" stroke-width="0.5"/>
<path d="M235.294 141.176H188.235V188.235H235.294V141.176Z" stroke="black" stroke-opacity="0.1" stroke-width="0.5"/>
<path d="M282.353 141.176H235.294V188.235H282.353V141.176Z" stroke="black" stroke-opacity="0.1" stroke-width="0.5"/>
<path d="M329.412 141.176H282.353V188.235H329.412V141.176Z" stroke="black" stroke-opacity="0.1" stroke-width="0.5"/>
<path d="M376.471 141.176H329.412V188.235H376.471V141.176Z" stroke="black" stroke-opacity="0.1" stroke-width="0.5"/>
<path d="M423.529 141.176H376.471V188.235H423.529V141.176Z" stroke="black" stroke-opacity="0.1" stroke-width="0.5"/>
<path d="M470.588 141.176H423.529V188.235H470.588V141.176Z" stroke="black" stroke-opacity="0.1" stroke-width="0.5"/>
<path d="M517.647 141.176H470.588V188.235H517.647V141.176Z" stroke="black" stroke-opacity="0.1" stroke-width="0.5"/>
<path d="M564.706 141.176H517.647V188.235H564.706V141.176Z" stroke="black" stroke-opacity="0.1" stroke-width="0.5"/>
<path d="M611.765 141.176H564.706V188.235H611.765V141.176Z" stroke="black" stroke-opacity="0.1" stroke-width="0.5"/>
<path d="M658.824 141.176H611.765V188.235H658.824V141.176Z" stroke="black" stroke-opacity="0.1" stroke-width="0.5"/>
<path d="M705.882 141.176H658.824V188.235H705.882V141.176Z" stroke="black" stroke-opacity="0.1" stroke-width="0.5"/>
<path d="M752.941 141.176H705.882V188.235H752.941V141.176Z" stroke="black" stroke-opacity="0.1" stroke-width="0.5"/>
<path d="M800 141.176H752.941V188.235H800V141.176Z" stroke="black" stroke-opacity="0.1" stroke-width="0.5"/>
<path d="M847.059 141.176H800V188.235H847.059V141.176Z" stroke="black" stroke-opacity="0.1" stroke-width="0.5"/>
<path d="M47.0588 188.235H0V235.294H47.0588V188.235Z" stroke="black" stroke-opacity="0.1" stroke-width="0.5"/>
<path d="M94.1177 188.235H47.0588V235.294H94.1177V188.235Z" stroke="black" stroke-opacity="0.1" stroke-width="0.5"/>
<path d="M141.176 188.235H94.1176V235.294H141.176V188.235Z" stroke="black" stroke-opacity="0.1" stroke-width="0.5"/>
<path d="M188.235 188.235H141.176V235.294H188.235V188.235Z" stroke="black" stroke-opacity="0.1" stroke-width="0.5"/>
<path d="M235.294 188.235H188.235V235.294H235.294V188.235Z" stroke="black" stroke-opacity="0.1" stroke-width="0.5"/>
<path d="M282.353 188.235H235.294V235.294H282.353V188.235Z" stroke="black" stroke-opacity="0.1" stroke-width="0.5"/>
<path d="M329.412 188.235H282.353V235.294H329.412V188.235Z" stroke="black" stroke-opacity="0.1" stroke-width="0.5"/>
<path d="M376.471 188.235H329.412V235.294H376.471V188.235Z" stroke="black" stroke-opacity="0.1" stroke-width="0.5"/>
<path d="M423.529 188.235H376.471V235.294H423.529V188.235Z" stroke="black" stroke-opacity="0.1" stroke-width="0.5"/>
<path d="M470.588 188.235H423.529V235.294H470.588V188.235Z" stroke="black" stroke-opacity="0.1" stroke-width="0.5"/>
<path d="M517.647 188.235H470.588V235.294H517.647V188.235Z" stroke="black" stroke-opacity="0.1" stroke-width="0.5"/>
<path d="M564.706 188.235H517.647V235.294H564.706V188.235Z" stroke="black" stroke-opacity="0.1" stroke-width="0.5"/>
<path d="M611.765 188.235H564.706V235.294H611.765V188.235Z" stroke="black" stroke-opacity="0.1" stroke-width="0.5"/>
<path d="M658.824 188.235H611.765V235.294H658.824V188.235Z" stroke="black" stroke-opacity="0.1" stroke-width="0.5"/>
<path d="M705.882 188.235H658.824V235.294H705.882V188.235Z" stroke="black" stroke-opacity="0.1" stroke-width="0.5"/>
<path d="M752.941 188.235H705.882V235.294H752.941V188.235Z" stroke="black" stroke-opacity="0.1" stroke-width="0.5"/>
<path d="M800 188.235H752.941V235.294H800V188.235Z" stroke="black" stroke-opacity="0.1" stroke-width="0.5"/>
<path d="M847.059 188.235H800V235.294H847.059V188.235Z" stroke="black" stroke-opacity="0.1" stroke-width="0.5"/>
<path d="M47.0588 235.294H0V282.353H47.0588V235.294Z" stroke="black" stroke-opacity="0.1" stroke-width="0.5"/>
<path d="M94.1177 235.294H47.0588V282.353H94.1177V235.294Z" stroke="black" stroke-opacity="0.1" stroke-width="0.5"/>
<path d="M141.176 235.294H94.1176V282.353H141.176V235.294Z" stroke="black" stroke-opacity="0.1" stroke-width="0.5"/>
<path d="M188.235 235.294H141.176V282.353H188.235V235.294Z" stroke="black" stroke-opacity="0.1" stroke-width="0.5"/>
<path d="M235.294 235.294H188.235V282.353H235.294V235.294Z" stroke="black" stroke-opacity="0.1" stroke-width="0.5"/>
<path d="M282.353 235.294H235.294V282.353H282.353V235.294Z" stroke="black" stroke-opacity="0.1" stroke-width="0.5"/>
<path d="M329.412 235.294H282.353V282.353H329.412V235.294Z" stroke="black" stroke-opacity="0.1" stroke-width="0.5"/>
<path d="M376.471 235.294H329.412V282.353H376.471V235.294Z" stroke="black" stroke-opacity="0.1" stroke-width="0.5"/>
<path d="M423.529 235.294H376.471V282.353H423.529V235.294Z" stroke="black" stroke-opacity="0.1" stroke-width="0.5"/>
<path d="M470.588 235.294H423.529V282.353H470.588V235.294Z" stroke="black" stroke-opacity="0.1" stroke-width="0.5"/>
<path d="M517.647 235.294H470.588V282.353H517.647V235.294Z" stroke="black" stroke-opacity="0.1" stroke-width="0.5"/>
<path d="M564.706 235.294H517.647V282.353H564.706V235.294Z" stroke="black" stroke-opacity="0.1" stroke-width="0.5"/>
<path d="M611.765 235.294H564.706V282.353H611.765V235.294Z" stroke="black" stroke-opacity="0.1" stroke-width="0.5"/>
<path d="M658.824 235.294H611.765V282.353H658.824V235.294Z" stroke="black" stroke-opacity="0.1" stroke-width="0.5"/>
<path d="M705.882 235.294H658.824V282.353H705.882V235.294Z" stroke="black" stroke-opacity="0.1" stroke-width="0.5"/>
<path d="M752.941 235.294H705.882V282.353H752.941V235.294Z" stroke="black" stroke-opacity="0.1" stroke-width="0.5"/>
<path d="M800 235.294H752.941V282.353H800V235.294Z" stroke="black" stroke-opacity="0.1" stroke-width="0.5"/>
<path d="M847.059 235.294H800V282.353H847.059V235.294Z" stroke="black" stroke-opacity="0.1" stroke-width="0.5"/>
<path d="M47.0588 282.353H0V329.412H47.0588V282.353Z" stroke="black" stroke-opacity="0.1" stroke-width="0.5"/>
<path d="M94.1177 282.353H47.0588V329.412H94.1177V282.353Z" stroke="black" stroke-opacity="0.1" stroke-width="0.5"/>
<path d="M141.176 282.353H94.1176V329.412H141.176V282.353Z" stroke="black" stroke-opacity="0.1" stroke-width="0.5"/>
<path d="M188.235 282.353H141.176V329.412H188.235V282.353Z" stroke="black" stroke-opacity="0.1" stroke-width="0.5"/>
<path d="M235.294 282.353H188.235V329.412H235.294V282.353Z" stroke="black" stroke-opacity="0.1" stroke-width="0.5"/>
<path d="M282.353 282.353H235.294V329.412H282.353V282.353Z" stroke="black" stroke-opacity="0.1" stroke-width="0.5"/>
<path d="M329.412 282.353H282.353V329.412H329.412V282.353Z" stroke="black" stroke-opacity="0.1" stroke-width="0.5"/>
<path d="M376.471 282.353H329.412V329.412H376.471V282.353Z" stroke="black" stroke-opacity="0.1" stroke-width="0.5"/>
<path d="M423.529 282.353H376.471V329.412H423.529V282.353Z" stroke="black" stroke-opacity="0.1" stroke-width="0.5"/>
<path d="M470.588 282.353H423.529V329.412H470.588V282.353Z" stroke="black" stroke-opacity="0.1" stroke-width="0.5"/>
<path d="M517.647 282.353H470.588V329.412H517.647V282.353Z" stroke="black" stroke-opacity="0.1" stroke-width="0.5"/>
<path d="M564.706 282.353H517.647V329.412H564.706V282.353Z" stroke="black" stroke-opacity="0.1" stroke-width="0.5"/>
<path d="M611.765 282.353H564.706V329.412H611.765V282.353Z" stroke="black" stroke-opacity="0.1" stroke-width="0.5"/>
<path d="M658.824 282.353H611.765V329.412H658.824V282.353Z" stroke="black" stroke-opacity="0.1" stroke-width="0.5"/>
<path d="M705.882 282.353H658.824V329.412H705.882V282.353Z" stroke="black" stroke-opacity="0.1" stroke-width="0.5"/>
<path d="M752.941 282.353H705.882V329.412H752.941V282.353Z" stroke="black" stroke-opacity="0.1" stroke-width="0.5"/>
<path d="M800 282.353H752.941V329.412H800V282.353Z" stroke="black" stroke-opacity="0.1" stroke-width="0.5"/>
<path d="M847.059 282.353H800V329.412H847.059V282.353Z" stroke="black" stroke-opacity="0.1" stroke-width="0.5"/>
<path d="M47.0588 329.412H0V376.471H47.0588V329.412Z" stroke="black" stroke-opacity="0.1" stroke-width="0.5"/>
<path d="M94.1177 329.412H47.0588V376.471H94.1177V329.412Z" stroke="black" stroke-opacity="0.1" stroke-width="0.5"/>
<path d="M141.176 329.412H94.1176V376.471H141.176V329.412Z" stroke="black" stroke-opacity="0.1" stroke-width="0.5"/>
<path d="M188.235 329.412H141.176V376.471H188.235V329.412Z" stroke="black" stroke-opacity="0.1" stroke-width="0.5"/>
<path d="M235.294 329.412H188.235V376.471H235.294V329.412Z" stroke="black" stroke-opacity="0.1" stroke-width="0.5"/>
<path d="M282.353 329.412H235.294V376.471H282.353V329.412Z" stroke="black" stroke-opacity="0.1" stroke-width="0.5"/>
<path d="M329.412 329.412H282.353V376.471H329.412V329.412Z" stroke="black" stroke-opacity="0.1" stroke-width="0.5"/>
<path d="M376.471 329.412H329.412V376.471H376.471V329.412Z" stroke="black" stroke-opacity="0.1" stroke-width="0.5"/>
<path d="M423.529 329.412H376.471V376.471H423.529V329.412Z" stroke="black" stroke-opacity="0.1" stroke-width="0.5"/>
<path d="M470.588 329.412H423.529V376.471H470.588V329.412Z" stroke="black" stroke-opacity="0.1" stroke-width="0.5"/>
<path d="M517.647 329.412H470.588V376.471H517.647V329.412Z" stroke="black" stroke-opacity="0.1" stroke-width="0.5"/>
<path d="M564.706 329.412H517.647V376.471H564.706V329.412Z" stroke="black" stroke-opacity="0.1" stroke-width="0.5"/>
<path d="M611.765 329.412H564.706V376.471H611.765V329.412Z" stroke="black" stroke-opacity="0.1" stroke-width="0.5"/>
<path d="M658.824 329.412H611.765V376.471H658.824V329.412Z" stroke="black" stroke-opacity="0.1" stroke-width="0.5"/>
<path d="M705.882 329.412H658.824V376.471H705.882V329.412Z" stroke="black" stroke-opacity="0.1" stroke-width="0.5"/>
<path d="M752.941 329.412H705.882V376.471H752.941V329.412Z" stroke="black" stroke-opacity="0.1" stroke-width="0.5"/>
<path d="M800 329.412H752.941V376.471H800V329.412Z" stroke="black" stroke-opacity="0.1" stroke-width="0.5"/>
<path d="M847.059 329.412H800V376.471H847.059V329.412Z" stroke="black" stroke-opacity="0.1" stroke-width="0.5"/>
<path d="M47.0588 376.471H0V423.529H47.0588V376.471Z" stroke="black" stroke-opacity="0.1" stroke-width="0.5"/>
<path d="M94.1177 376.471H47.0588V423.529H94.1177V376.471Z" stroke="black" stroke-opacity="0.1" stroke-width="0.5"/>
<path d="M141.176 376.471H94.1176V423.529H141.176V376.471Z" stroke="black" stroke-opacity="0.1" stroke-width="0.5"/>
<path d="M188.235 376.471H141.176V423.529H188.235V376.471Z" stroke="black" stroke-opacity="0.1" stroke-width="0.5"/>
<path d="M235.294 376.471H188.235V423.529H235.294V376.471Z" stroke="black" stroke-opacity="0.1" stroke-width="0.5"/>
<path d="M282.353 376.471H235.294V423.529H282.353V376.471Z" stroke="black" stroke-opacity="0.1" stroke-width="0.5"/>
<path d="M329.412 376.471H282.353V423.529H329.412V376.471Z" stroke="black" stroke-opacity="0.1" stroke-width="0.5"/>
<path d="M376.471 376.471H329.412V423.529H376.471V376.471Z" stroke="black" stroke-opacity="0.1" stroke-width="0.5"/>
<path d="M423.529 376.471H376.471V423.529H423.529V376.471Z" stroke="black" stroke-opacity="0.1" stroke-width="0.5"/>
<path d="M470.588 376.471H423.529V423.529H470.588V376.471Z" stroke="black" stroke-opacity="0.1" stroke-width="0.5"/>
<path d="M517.647 376.471H470.588V423.529H517.647V376.471Z" stroke="black" stroke-opacity="0.1" stroke-width="0.5"/>
<path d="M564.706 376.471H517.647V423.529H564.706V376.471Z" stroke="black" stroke-opacity="0.1" stroke-width="0.5"/>
<path d="M611.765 376.471H564.706V423.529H611.765V376.471Z" stroke="black" stroke-opacity="0.1" stroke-width="0.5"/>
<path d="M658.824 376.471H611.765V423.529H658.824V376.471Z" stroke="black" stroke-opacity="0.1" stroke-width="0.5"/>
<path d="M705.882 376.471H658.824V423.529H705.882V376.471Z" stroke="black" stroke-opacity="0.1" stroke-width="0.5"/>
<path d="M752.941 376.471H705.882V423.529H752.941V376.471Z" stroke="black" stroke-opacity="0.1" stroke-width="0.5"/>
<path d="M800 376.471H752.941V423.529H800V376.471Z" stroke="black" stroke-opacity="0.1" stroke-width="0.5"/>
<path d="M847.059 376.471H800V423.529H847.059V376.471Z" stroke="black" stroke-opacity="0.1" stroke-width="0.5"/>
<path d="M47.0588 423.529H0V470.588H47.0588V423.529Z" stroke="black" stroke-opacity="0.1" stroke-width="0.5"/>
<path d="M94.1177 423.529H47.0588V470.588H94.1177V423.529Z" stroke="black" stroke-opacity="0.1" stroke-width="0.5"/>
<path d="M141.176 423.529H94.1176V470.588H141.176V423.529Z" stroke="black" stroke-opacity="0.1" stroke-width="0.5"/>
<path d="M188.235 423.529H141.176V470.588H188.235V423.529Z" stroke="black" stroke-opacity="0.1" stroke-width="0.5"/>
<path d="M235.294 423.529H188.235V470.588H235.294V423.529Z" stroke="black" stroke-opacity="0.1" stroke-width="0.5"/>
<path d="M282.353 423.529H235.294V470.588H282.353V423.529Z" stroke="black" stroke-opacity="0.1" stroke-width="0.5"/>
<path d="M329.412 423.529H282.353V470.588H329.412V423.529Z" stroke="black" stroke-opacity="0.1" stroke-width="0.5"/>
<path d="M376.471 423.529H329.412V470.588H376.471V423.529Z" stroke="black" stroke-opacity="0.1" stroke-width="0.5"/>
<path d="M423.529 423.529H376.471V470.588H423.529V423.529Z" stroke="black" stroke-opacity="0.1" stroke-width="0.5"/>
<path d="M470.588 423.529H423.529V470.588H470.588V423.529Z" stroke="black" stroke-opacity="0.1" stroke-width="0.5"/>
<path d="M517.647 423.529H470.588V470.588H517.647V423.529Z" stroke="black" stroke-opacity="0.1" stroke-width="0.5"/>
<path d="M564.706 423.529H517.647V470.588H564.706V423.529Z" stroke="black" stroke-opacity="0.1" stroke-width="0.5"/>
<path d="M611.765 423.529H564.706V470.588H611.765V423.529Z" stroke="black" stroke-opacity="0.1" stroke-width="0.5"/>
<path d="M658.824 423.529H611.765V470.588H658.824V423.529Z" stroke="black" stroke-opacity="0.1" stroke-width="0.5"/>
<path d="M705.882 423.529H658.824V470.588H705.882V423.529Z" stroke="black" stroke-opacity="0.1" stroke-width="0.5"/>
<path d="M752.941 423.529H705.882V470.588H752.941V423.529Z" stroke="black" stroke-opacity="0.1" stroke-width="0.5"/>
<path d="M800 423.529H752.941V470.588H800V423.529Z" stroke="black" stroke-opacity="0.1" stroke-width="0.5"/>
<path d="M847.059 423.529H800V470.588H847.059V423.529Z" stroke="black" stroke-opacity="0.1" stroke-width="0.5"/>
<path d="M47.0588 470.588H0V517.647H47.0588V470.588Z" stroke="black" stroke-opacity="0.1" stroke-width="0.5"/>
<path d="M94.1177 470.588H47.0588V517.647H94.1177V470.588Z" stroke="black" stroke-opacity="0.1" stroke-width="0.5"/>
<path d="M141.176 470.588H94.1176V517.647H141.176V470.588Z" stroke="black" stroke-opacity="0.1" stroke-width="0.5"/>
<path d="M188.235 470.588H141.176V517.647H188.235V470.588Z" stroke="black" stroke-opacity="0.1" stroke-width="0.5"/>
<path d="M235.294 470.588H188.235V517.647H235.294V470.588Z" stroke="black" stroke-opacity="0.1" stroke-width="0.5"/>
<path d="M282.353 470.588H235.294V517.647H282.353V470.588Z" stroke="black" stroke-opacity="0.1" stroke-width="0.5"/>
<path d="M329.412 470.588H282.353V517.647H329.412V470.588Z" stroke="black" stroke-opacity="0.1" stroke-width="0.5"/>
<path d="M376.471 470.588H329.412V517.647H376.471V470.588Z" stroke="black" stroke-opacity="0.1" stroke-width="0.5"/>
<path d="M423.529 470.588H376.471V517.647H423.529V470.588Z" stroke="black" stroke-opacity="0.1" stroke-width="0.5"/>
<path d="M470.588 470.588H423.529V517.647H470.588V470.588Z" stroke="black" stroke-opacity="0.1" stroke-width="0.5"/>
<path d="M517.647 470.588H470.588V517.647H517.647V470.588Z" stroke="black" stroke-opacity="0.1" stroke-width="0.5"/>
<path d="M564.706 470.588H517.647V517.647H564.706V470.588Z" stroke="black" stroke-opacity="0.1" stroke-width="0.5"/>
<path d="M611.765 470.588H564.706V517.647H611.765V470.588Z" stroke="black" stroke-opacity="0.1" stroke-width="0.5"/>
<path d="M658.824 470.588H611.765V517.647H658.824V470.588Z" stroke="black" stroke-opacity="0.1" stroke-width="0.5"/>
<path d="M705.882 470.588H658.824V517.647H705.882V470.588Z" stroke="black" stroke-opacity="0.1" stroke-width="0.5"/>
<path d="M752.941 470.588H705.882V517.647H752.941V470.588Z" stroke="black" stroke-opacity="0.1" stroke-width="0.5"/>
<path d="M800 470.588H752.941V517.647H800V470.588Z" stroke="black" stroke-opacity="0.1" stroke-width="0.5"/>
<path d="M847.059 470.588H800V517.647H847.059V470.588Z" stroke="black" stroke-opacity="0.1" stroke-width="0.5"/>
<path d="M47.0588 517.647H0V564.706H47.0588V517.647Z" stroke="black" stroke-opacity="0.1" stroke-width="0.5"/>
<path d="M94.1177 517.647H47.0588V564.706H94.1177V517.647Z" stroke="black" stroke-opacity="0.1" stroke-width="0.5"/>
<path d="M141.176 517.647H94.1176V564.706H141.176V517.647Z" stroke="black" stroke-opacity="0.1" stroke-width="0.5"/>
<path d="M188.235 517.647H141.176V564.706H188.235V517.647Z" stroke="black" stroke-opacity="0.1" stroke-width="0.5"/>
<path d="M235.294 517.647H188.235V564.706H235.294V517.647Z" stroke="black" stroke-opacity="0.1" stroke-width="0.5"/>
<path d="M282.353 517.647H235.294V564.706H282.353V517.647Z" stroke="black" stroke-opacity="0.1" stroke-width="0.5"/>
<path d="M329.412 517.647H282.353V564.706H329.412V517.647Z" stroke="black" stroke-opacity="0.1" stroke-width="0.5"/>
<path d="M376.471 517.647H329.412V564.706H376.471V517.647Z" stroke="black" stroke-opacity="0.1" stroke-width="0.5"/>
<path d="M423.529 517.647H376.471V564.706H423.529V517.647Z" stroke="black" stroke-opacity="0.1" stroke-width="0.5"/>
<path d="M470.588 517.647H423.529V564.706H470.588V517.647Z" stroke="black" stroke-opacity="0.1" stroke-width="0.5"/>
<path d="M517.647 517.647H470.588V564.706H517.647V517.647Z" stroke="black" stroke-opacity="0.1" stroke-width="0.5"/>
<path d="M564.706 517.647H517.647V564.706H564.706V517.647Z" stroke="black" stroke-opacity="0.1" stroke-width="0.5"/>
<path d="M611.765 517.647H564.706V564.706H611.765V517.647Z" stroke="black" stroke-opacity="0.1" stroke-width="0.5"/>
<path d="M658.824 517.647H611.765V564.706H658.824V517.647Z" stroke="black" stroke-opacity="0.1" stroke-width="0.5"/>
<path d="M705.882 517.647H658.824V564.706H705.882V517.647Z" stroke="black" stroke-opacity="0.1" stroke-width="0.5"/>
<path d="M752.941 517.647H705.882V564.706H752.941V517.647Z" stroke="black" stroke-opacity="0.1" stroke-width="0.5"/>
<path d="M800 517.647H752.941V564.706H800V517.647Z" stroke="black" stroke-opacity="0.1" stroke-width="0.5"/>
<path d="M847.059 517.647H800V564.706H847.059V517.647Z" stroke="black" stroke-opacity="0.1" stroke-width="0.5"/>
<path d="M47.0588 564.706H0V611.765H47.0588V564.706Z" stroke="black" stroke-opacity="0.1" stroke-width="0.5"/>
<path d="M94.1177 564.706H47.0588V611.765H94.1177V564.706Z" stroke="black" stroke-opacity="0.1" stroke-width="0.5"/>
<path d="M141.176 564.706H94.1176V611.765H141.176V564.706Z" stroke="black" stroke-opacity="0.1" stroke-width="0.5"/>
<path d="M188.235 564.706H141.176V611.765H188.235V564.706Z" stroke="black" stroke-opacity="0.1" stroke-width="0.5"/>
<path d="M235.294 564.706H188.235V611.765H235.294V564.706Z" stroke="black" stroke-opacity="0.1" stroke-width="0.5"/>
<path d="M282.353 564.706H235.294V611.765H282.353V564.706Z" stroke="black" stroke-opacity="0.1" stroke-width="0.5"/>
<path d="M329.412 564.706H282.353V611.765H329.412V564.706Z" stroke="black" stroke-opacity="0.1" stroke-width="0.5"/>
<path d="M376.471 564.706H329.412V611.765H376.471V564.706Z" stroke="black" stroke-opacity="0.1" stroke-width="0.5"/>
<path d="M423.529 564.706H376.471V611.765H423.529V564.706Z" stroke="black" stroke-opacity="0.1" stroke-width="0.5"/>
<path d="M470.588 564.706H423.529V611.765H470.588V564.706Z" stroke="black" stroke-opacity="0.1" stroke-width="0.5"/>
<path d="M517.647 564.706H470.588V611.765H517.647V564.706Z" stroke="black" stroke-opacity="0.1" stroke-width="0.5"/>
<path d="M564.706 564.706H517.647V611.765H564.706V564.706Z" stroke="black" stroke-opacity="0.1" stroke-width="0.5"/>
<path d="M611.765 564.706H564.706V611.765H611.765V564.706Z" stroke="black" stroke-opacity="0.1" stroke-width="0.5"/>
<path d="M658.824 564.706H611.765V611.765H658.824V564.706Z" stroke="black" stroke-opacity="0.1" stroke-width="0.5"/>
<path d="M705.882 564.706H658.824V611.765H705.882V564.706Z" stroke="black" stroke-opacity="0.1" stroke-width="0.5"/>
<path d="M752.941 564.706H705.882V611.765H752.941V564.706Z" stroke="black" stroke-opacity="0.1" stroke-width="0.5"/>
<path d="M800 564.706H752.941V611.765H800V564.706Z" stroke="black" stroke-opacity="0.1" stroke-width="0.5"/>
<path d="M847.059 564.706H800V611.765H847.059V564.706Z" stroke="black" stroke-opacity="0.1" stroke-width="0.5"/>
<path d="M47.0588 611.765H0V658.823H47.0588V611.765Z" stroke="black" stroke-opacity="0.1" stroke-width="0.5"/>
<path d="M94.1177 611.765H47.0588V658.823H94.1177V611.765Z" stroke="black" stroke-opacity="0.1" stroke-width="0.5"/>
<path d="M141.176 611.765H94.1176V658.823H141.176V611.765Z" stroke="black" stroke-opacity="0.1" stroke-width="0.5"/>
<path d="M188.235 611.765H141.176V658.823H188.235V611.765Z" stroke="black" stroke-opacity="0.1" stroke-width="0.5"/>
<path d="M235.294 611.765H188.235V658.823H235.294V611.765Z" stroke="black" stroke-opacity="0.1" stroke-width="0.5"/>
<path d="M282.353 611.765H235.294V658.823H282.353V611.765Z" stroke="black" stroke-opacity="0.1" stroke-width="0.5"/>
<path d="M329.412 611.765H282.353V658.823H329.412V611.765Z" stroke="black" stroke-opacity="0.1" stroke-width="0.5"/>
<path d="M376.471 611.765H329.412V658.823H376.471V611.765Z" stroke="black" stroke-opacity="0.1" stroke-width="0.5"/>
<path d="M423.529 611.765H376.471V658.823H423.529V611.765Z" stroke="black" stroke-opacity="0.1" stroke-width="0.5"/>
<path d="M470.588 611.765H423.529V658.823H470.588V611.765Z" stroke="black" stroke-opacity="0.1" stroke-width="0.5"/>
<path d="M517.647 611.765H470.588V658.823H517.647V611.765Z" stroke="black" stroke-opacity="0.1" stroke-width="0.5"/>
<path d="M564.706 611.765H517.647V658.823H564.706V611.765Z" stroke="black" stroke-opacity="0.1" stroke-width="0.5"/>
<path d="M611.765 611.765H564.706V658.823H611.765V611.765Z" stroke="black" stroke-opacity="0.1" stroke-width="0.5"/>
<path d="M658.824 611.765H611.765V658.823H658.824V611.765Z" stroke="black" stroke-opacity="0.1" stroke-width="0.5"/>
<path d="M705.882 611.765H658.824V658.823H705.882V611.765Z" stroke="black" stroke-opacity="0.1" stroke-width="0.5"/>
<path d="M752.941 611.765H705.882V658.823H752.941V611.765Z" stroke="black" stroke-opacity="0.1" stroke-width="0.5"/>
<path d="M800 611.765H752.941V658.823H800V611.765Z" stroke="black" stroke-opacity="0.1" stroke-width="0.5"/>
<path d="M847.059 611.765H800V658.823H847.059V611.765Z" stroke="black" stroke-opacity="0.1" stroke-width="0.5"/>
<path d="M47.0588 658.823H0V705.882H47.0588V658.823Z" stroke="black" stroke-opacity="0.1" stroke-width="0.5"/>
<path d="M94.1177 658.823H47.0588V705.882H94.1177V658.823Z" stroke="black" stroke-opacity="0.1" stroke-width="0.5"/>
<path d="M141.176 658.823H94.1176V705.882H141.176V658.823Z" stroke="black" stroke-opacity="0.1" stroke-width="0.5"/>
<path d="M188.235 658.823H141.176V705.882H188.235V658.823Z" stroke="black" stroke-opacity="0.1" stroke-width="0.5"/>
<path d="M235.294 658.823H188.235V705.882H235.294V658.823Z" stroke="black" stroke-opacity="0.1" stroke-width="0.5"/>
<path d="M282.353 658.823H235.294V705.882H282.353V658.823Z" stroke="black" stroke-opacity="0.1" stroke-width="0.5"/>
<path d="M329.412 658.823H282.353V705.882H329.412V658.823Z" stroke="black" stroke-opacity="0.1" stroke-width="0.5"/>
<path d="M376.471 658.823H329.412V705.882H376.471V658.823Z" stroke="black" stroke-opacity="0.1" stroke-width="0.5"/>
<path d="M423.529 658.823H376.471V705.882H423.529V658.823Z" stroke="black" stroke-opacity="0.1" stroke-width="0.5"/>
<path d="M470.588 658.823H423.529V705.882H470.588V658.823Z" stroke="black" stroke-opacity="0.1" stroke-width="0.5"/>
<path d="M517.647 658.823H470.588V705.882H517.647V658.823Z" stroke="black" stroke-opacity="0.1" stroke-width="0.5"/>
<path d="M564.706 658.823H517.647V705.882H564.706V658.823Z" stroke="black" stroke-opacity="0.1" stroke-width="0.5"/>
<path d="M611.765 658.823H564.706V705.882H611.765V658.823Z" stroke="black" stroke-opacity="0.1" stroke-width="0.5"/>
<path d="M658.824 658.823H611.765V705.882H658.824V658.823Z" stroke="black" stroke-opacity="0.1" stroke-width="0.5"/>
<path d="M705.882 658.823H658.824V705.882H705.882V658.823Z" stroke="black" stroke-opacity="0.1" stroke-width="0.5"/>
<path d="M752.941 658.823H705.882V705.882H752.941V658.823Z" stroke="black" stroke-opacity="0.1" stroke-width="0.5"/>
<path d="M800 658.823H752.941V705.882H800V658.823Z" stroke="black" stroke-opacity="0.1" stroke-width="0.5"/>
<path d="M847.059 658.823H800V705.882H847.059V658.823Z" stroke="black" stroke-opacity="0.1" stroke-width="0.5"/>
<path d="M47.0588 705.882H0V752.941H47.0588V705.882Z" stroke="black" stroke-opacity="0.1" stroke-width="0.5"/>
<path d="M94.1177 705.882H47.0588V752.941H94.1177V705.882Z" stroke="black" stroke-opacity="0.1" stroke-width="0.5"/>
<path d="M141.176 705.882H94.1176V752.941H141.176V705.882Z" stroke="black" stroke-opacity="0.1" stroke-width="0.5"/>
<path d="M188.235 705.882H141.176V752.941H188.235V705.882Z" stroke="black" stroke-opacity="0.1" stroke-width="0.5"/>
<path d="M235.294 705.882H188.235V752.941H235.294V705.882Z" stroke="black" stroke-opacity="0.1" stroke-width="0.5"/>
<path d="M282.353 705.882H235.294V752.941H282.353V705.882Z" stroke="black" stroke-opacity="0.1" stroke-width="0.5"/>
<path d="M329.412 705.882H282.353V752.941H329.412V705.882Z" stroke="black" stroke-opacity="0.1" stroke-width="0.5"/>
<path d="M376.471 705.882H329.412V752.941H376.471V705.882Z" stroke="black" stroke-opacity="0.1" stroke-width="0.5"/>
<path d="M423.529 705.882H376.471V752.941H423.529V705.882Z" stroke="black" stroke-opacity="0.1" stroke-width="0.5"/>
<path d="M470.588 705.882H423.529V752.941H470.588V705.882Z" stroke="black" stroke-opacity="0.1" stroke-width="0.5"/>
<path d="M517.647 705.882H470.588V752.941H517.647V705.882Z" stroke="black" stroke-opacity="0.1" stroke-width="0.5"/>
<path d="M564.706 705.882H517.647V752.941H564.706V705.882Z" stroke="black" stroke-opacity="0.1" stroke-width="0.5"/>
<path d="M611.765 705.882H564.706V752.941H611.765V705.882Z" stroke="black" stroke-opacity="0.1" stroke-width="0.5"/>
<path d="M658.824 705.882H611.765V752.941H658.824V705.882Z" stroke="black" stroke-opacity="0.1" stroke-width="0.5"/>
<path d="M705.882 705.882H658.824V752.941H705.882V705.882Z" stroke="black" stroke-opacity="0.1" stroke-width="0.5"/>
<path d="M752.941 705.882H705.882V752.941H752.941V705.882Z" stroke="black" stroke-opacity="0.1" stroke-width="0.5"/>
<path d="M800 705.882H752.941V752.941H800V705.882Z" stroke="black" stroke-opacity="0.1" stroke-width="0.5"/>
<path d="M847.059 705.882H800V752.941H847.059V705.882Z" stroke="black" stroke-opacity="0.1" stroke-width="0.5"/>
<path d="M47.0588 752.941H0V800H47.0588V752.941Z" stroke="black" stroke-opacity="0.1" stroke-width="0.5"/>
<path d="M94.1177 752.941H47.0588V800H94.1177V752.941Z" stroke="black" stroke-opacity="0.1" stroke-width="0.5"/>
<path d="M141.176 752.941H94.1176V800H141.176V752.941Z" stroke="black" stroke-opacity="0.1" stroke-width="0.5"/>
<path d="M188.235 752.941H141.176V800H188.235V752.941Z" stroke="black" stroke-opacity="0.1" stroke-width="0.5"/>
<path d="M235.294 752.941H188.235V800H235.294V752.941Z" stroke="black" stroke-opacity="0.1" stroke-width="0.5"/>
<path d="M282.353 752.941H235.294V800H282.353V752.941Z" stroke="black" stroke-opacity="0.1" stroke-width="0.5"/>
<path d="M329.412 752.941H282.353V800H329.412V752.941Z" stroke="black" stroke-opacity="0.1" stroke-width="0.5"/>
<path d="M376.471 752.941H329.412V800H376.471V752.941Z" stroke="black" stroke-opacity="0.1" stroke-width="0.5"/>
<path d="M423.529 752.941H376.471V800H423.529V752.941Z" stroke="black" stroke-opacity="0.1" stroke-width="0.5"/>
<path d="M470.588 752.941H423.529V800H470.588V752.941Z" stroke="black" stroke-opacity="0.1" stroke-width="0.5"/>
<path d="M517.647 752.941H470.588V800H517.647V752.941Z" stroke="black" stroke-opacity="0.1" stroke-width="0.5"/>
<path d="M564.706 752.941H517.647V800H564.706V752.941Z" stroke="black" stroke-opacity="0.1" stroke-width="0.5"/>
<path d="M611.765 752.941H564.706V800H611.765V752.941Z" stroke="black" stroke-opacity="0.1" stroke-width="0.5"/>
<path d="M658.824 752.941H611.765V800H658.824V752.941Z" stroke="black" stroke-opacity="0.1" stroke-width="0.5"/>
<path d="M705.882 752.941H658.824V800H705.882V752.941Z" stroke="black" stroke-opacity="0.1" stroke-width="0.5"/>
<path d="M752.941 752.941H705.882V800H752.941V752.941Z" stroke="black" stroke-opacity="0.1" stroke-width="0.5"/>
<path d="M800 752.941H752.941V800H800V752.941Z" stroke="black" stroke-opacity="0.1" stroke-width="0.5"/>
<path d="M847.059 752.941H800V800H847.059V752.941Z" stroke="black" stroke-opacity="0.1" stroke-width="0.5"/>
<path d="M47.0588 800H0V847.059H47.0588V800Z" stroke="black" stroke-opacity="0.1" stroke-width="0.5"/>
<path d="M94.1177 800H47.0588V847.059H94.1177V800Z" stroke="black" stroke-opacity="0.1" stroke-width="0.5"/>
<path d="M141.176 800H94.1176V847.059H141.176V800Z" stroke="black" stroke-opacity="0.1" stroke-width="0.5"/>
<path d="M188.235 800H141.176V847.059H188.235V800Z" stroke="black" stroke-opacity="0.1" stroke-width="0.5"/>
<path d="M235.294 800H188.235V847.059H235.294V800Z" stroke="black" stroke-opacity="0.1" stroke-width="0.5"/>
<path d="M282.353 800H235.294V847.059H282.353V800Z" stroke="black" stroke-opacity="0.1" stroke-width="0.5"/>
<path d="M329.412 800H282.353V847.059H329.412V800Z" stroke="black" stroke-opacity="0.1" stroke-width="0.5"/>
<path d="M376.471 800H329.412V847.059H376.471V800Z" stroke="black" stroke-opacity="0.1" stroke-width="0.5"/>
<path d="M423.529 800H376.471V847.059H423.529V800Z" stroke="black" stroke-opacity="0.1" stroke-width="0.5"/>
<path d="M470.588 800H423.529V847.059H470.588V800Z" stroke="black" stroke-opacity="0.1" stroke-width="0.5"/>
<path d="M517.647 800H470.588V847.059H517.647V800Z" stroke="black" stroke-opacity="0.1" stroke-width="0.5"/>
<path d="M564.706 800H517.647V847.059H564.706V800Z" stroke="black" stroke-opacity="0.1" stroke-width="0.5"/>
<path d="M611.765 800H564.706V847.059H611.765V800Z" stroke="black" stroke-opacity="0.1" stroke-width="0.5"/>
<path d="M658.824 800H611.765V847.059H658.824V800Z" stroke="black" stroke-opacity="0.1" stroke-width="0.5"/>
<path d="M705.882 800H658.824V847.059H705.882V800Z" stroke="black" stroke-opacity="0.1" stroke-width="0.5"/>
<path d="M752.941 800H705.882V847.059H752.941V800Z" stroke="black" stroke-opacity="0.1" stroke-width="0.5"/>
<path d="M800 800H752.941V847.059H800V800Z" stroke="black" stroke-opacity="0.1" stroke-width="0.5"/>
<path d="M847.059 800H800V847.059H847.059V800Z" stroke="black" stroke-opacity="0.1" stroke-width="0.5"/>
</svg>
