<svg width="29" height="29" viewBox="0 0 29 29" fill="none" xmlns="http://www.w3.org/2000/svg">
<g clip-path="url(#clip0_11_236)">
<path d="M3.08273 16.7683L12.8651 25.9011C13.2711 26.28 13.8071 26.4912 14.3647 26.4912C14.9223 26.4912 15.4582 26.28 15.8643 25.9011L25.6466 16.7683C27.2924 15.2363 28.2235 13.0871 28.2235 10.8404V10.5264C28.2235 6.74234 25.4896 3.51583 21.7597 2.89327C19.2911 2.48183 16.7792 3.28846 15.0143 5.05329L14.3647 5.70293L13.7151 5.05329C11.9502 3.28846 9.4383 2.48183 6.9697 2.89327C3.23973 3.51583 0.505859 6.74234 0.505859 10.5264V10.8404C0.505859 13.0871 1.437 15.2363 3.08273 16.7683Z" fill="#40632F"/>
</g>
<defs>
<clipPath id="clip0_11_236">
<rect width="27.7176" height="27.7176" fill="white" transform="translate(0.505859 0.505859)"/>
</clipPath>
</defs>
</svg>
