<svg width="29" height="29" viewBox="0 0 29 29" fill="none" xmlns="http://www.w3.org/2000/svg">
<g clip-path="url(#clip0_11_228)">
<path d="M12.624 5.42633C13.3944 7.73755 12.6078 10.0703 10.8676 10.6414C9.1275 11.2125 7.09104 9.80094 6.32064 7.48972C5.55023 5.17851 6.3368 2.84574 8.07695 2.27467C9.81709 1.7036 11.8535 3.11511 12.624 5.42633ZM5.83038 11.1209C6.84861 12.8664 6.60078 14.8975 5.28086 15.6517C3.96093 16.406 2.06455 15.6032 1.05171 13.8577C0.0388683 12.1122 0.275916 10.0811 1.59584 9.32685C2.91577 8.5726 4.81215 9.37533 5.82499 11.1209H5.83038ZM4.14949 22.0358C6.97252 14.4234 11.9882 12.4893 14.2133 12.4893C16.4383 12.4893 21.454 14.4234 24.277 22.0358C24.471 22.5584 24.5572 23.1187 24.5572 23.679V23.7652C24.5572 25.1552 23.4312 26.2812 22.0412 26.2812C21.4217 26.2812 20.8075 26.2057 20.2095 26.0549L15.4685 24.8696C14.6442 24.6649 13.7823 24.6649 12.958 24.8696L8.21702 26.0549C7.61901 26.2057 7.00484 26.2812 6.38529 26.2812C4.99532 26.2812 3.86935 25.1552 3.86935 23.7652V23.679C3.86935 23.1187 3.95555 22.5584 4.14949 22.0358ZM23.1456 15.6517C21.8257 14.8975 21.5779 12.8664 22.5961 11.1209C23.6144 9.37533 25.5054 8.5726 26.8253 9.32685C28.1452 10.0811 28.393 12.1122 27.3748 13.8577C26.3566 15.6032 24.4656 16.406 23.1456 15.6517ZM17.1279 10.6414C15.3877 10.0703 14.6011 7.73755 15.3716 5.42633C16.142 3.11511 18.1784 1.7036 19.9186 2.27467C21.6587 2.84574 22.4453 5.17851 21.6749 7.48972C20.9045 9.80094 18.868 11.2125 17.1279 10.6414Z" fill="#40632F"/>
</g>
<defs>
<clipPath id="clip0_11_228">
<rect width="27.5838" height="27.5838" fill="white" transform="translate(0.421387 0.421387)"/>
</clipPath>
</defs>
</svg>
