<svg width="28" height="28" viewBox="0 0 28 28" fill="none" xmlns="http://www.w3.org/2000/svg">
<g clip-path="url(#clip0_11_232)">
<path d="M22.438 12.6323L23.056 12.0143L21.2021 10.1604L17.806 6.76428L15.9521 4.91038L15.3341 5.52834L14.0982 6.76428L3.20445 17.658C2.6357 18.2268 2.22007 18.9322 1.99039 19.7033L0.0544489 26.2877C-0.0822699 26.7471 0.0435113 27.2447 0.388043 27.5838C0.732574 27.9229 1.22476 28.0487 1.68414 27.9174L8.26304 25.9815C9.03413 25.7518 9.7396 25.3362 10.3084 24.7674L21.2021 13.8737L22.438 12.6323ZM8.74976 21.8416L8.2521 23.083C8.03335 23.2526 7.78726 23.3783 7.52476 23.4604L3.2482 24.7182L4.50601 20.4471C4.58257 20.1791 4.71382 19.933 4.88335 19.7198L6.12476 19.2221V20.9721C6.12476 21.4533 6.51851 21.8471 6.99976 21.8471H8.74976V21.8416ZM19.8349 1.02209L19.0474 1.81506L17.8115 3.051L17.188 3.66897L19.0419 5.52288L22.438 8.91897L24.2919 10.7729L24.9099 10.1549L26.1459 8.91897L26.9388 8.126C28.306 6.75881 28.306 4.54397 26.9388 3.17678L24.7896 1.02209C23.4224 -0.345093 21.2076 -0.345093 19.8404 1.02209H19.8349ZM17.2427 10.2096L9.36773 18.0846C9.02867 18.4237 8.47085 18.4237 8.13179 18.0846C7.79273 17.7455 7.79273 17.1877 8.13179 16.8487L16.0068 8.97366C16.3459 8.63459 16.9037 8.63459 17.2427 8.97366C17.5818 9.31272 17.5818 9.87053 17.2427 10.2096Z" fill="#40632F"/>
</g>
<defs>
<clipPath id="clip0_11_232">
<rect width="28" height="28" fill="white"/>
</clipPath>
</defs>
</svg>
