<svg width="608" height="821" viewBox="0 0 608 821" fill="none" xmlns="http://www.w3.org/2000/svg">
<circle cx="304" cy="304" r="304" fill="#D9D9D9"/>
<path fill-rule="evenodd" clip-rule="evenodd" d="M111.875 224C176.42 224 234.595 251.308 275.474 295C290.734 311.58 294.1 332.724 297.416 353.55C301.639 380.08 305.781 406.094 334.323 421.5C335.348 430.191 335.875 439.034 335.875 448V480V576C335.875 593.7 321.575 608 303.875 608C286.175 608 271.875 593.7 271.875 576V480C148.175 480 47.8748 379.7 47.8748 256C47.8748 252.29 47.6243 248.729 47.3914 245.418C46.5133 232.933 45.885 224 59.8748 224H111.875Z" fill="#505050"/>
<path d="M334.323 421.5C334.023 418.95 333.679 416.413 333.294 413.89C326.323 368.279 305.593 327.192 275.474 295C290.734 311.58 294.1 332.724 297.416 353.55C301.639 380.08 305.781 406.094 334.323 421.5Z" fill="#505050"/>
<path d="M334.323 421.5C443.923 407 559.875 305.6 559.875 192C559.875 174.3 565.075 157 547.375 157L495.875 160C411.875 160 313.774 226.6 275.474 295C305.593 327.192 326.323 368.279 333.294 413.89C333.679 416.413 334.023 418.95 334.323 421.5Z" fill="#9CBF97"/>
<path d="M15.4815 785V675.909H38.5462V765.984H85.3146V785H15.4815ZM100.163 785V703.182H122.855V785H100.163ZM111.562 692.635C108.188 692.635 105.294 691.516 102.879 689.279C100.5 687.006 99.3105 684.29 99.3105 681.129C99.3105 678.004 100.5 675.323 102.879 673.086C105.294 670.813 108.188 669.677 111.562 669.677C114.936 669.677 117.812 670.813 120.191 673.086C122.606 675.323 123.813 678.004 123.813 681.129C123.813 684.29 122.606 687.006 120.191 689.279C117.812 691.516 114.936 692.635 111.562 692.635ZM185.031 703.182V720.227H134.533V703.182H185.031ZM146.092 785V697.269C146.092 691.339 147.246 686.42 149.555 682.514C151.898 678.608 155.094 675.678 159.143 673.725C163.191 671.772 167.79 670.795 172.939 670.795C176.419 670.795 179.597 671.062 182.474 671.594C185.386 672.127 187.552 672.607 188.972 673.033L184.924 690.078C184.036 689.794 182.935 689.528 181.621 689.279C180.343 689.031 179.029 688.906 177.68 688.906C174.342 688.906 172.016 689.688 170.702 691.25C169.388 692.777 168.731 694.925 168.731 697.695V785H146.092ZM233.251 786.598C224.834 786.598 217.59 784.893 211.518 781.484C205.481 778.04 200.829 773.175 197.562 766.889C194.295 760.568 192.661 753.093 192.661 744.464C192.661 736.048 194.295 728.661 197.562 722.305C200.829 715.948 205.427 710.994 211.358 707.443C217.324 703.892 224.319 702.116 232.345 702.116C237.743 702.116 242.768 702.987 247.42 704.727C252.107 706.431 256.191 709.006 259.671 712.45C263.187 715.895 265.921 720.227 267.874 725.447C269.827 730.632 270.804 736.705 270.804 743.665V749.897H201.716V735.835H249.444C249.444 732.567 248.733 729.673 247.313 727.152C245.893 724.631 243.922 722.66 241.4 721.239C238.915 719.783 236.02 719.055 232.718 719.055C229.273 719.055 226.219 719.854 223.556 721.452C220.928 723.015 218.868 725.128 217.377 727.791C215.885 730.419 215.122 733.349 215.086 736.58V749.95C215.086 753.999 215.832 757.496 217.324 760.444C218.851 763.391 220.999 765.664 223.769 767.262C226.539 768.86 229.824 769.659 233.623 769.659C236.145 769.659 238.453 769.304 240.548 768.594C242.643 767.884 244.437 766.818 245.928 765.398C247.42 763.977 248.556 762.237 249.337 760.178L270.324 761.562C269.259 766.605 267.075 771.009 263.773 774.773C260.506 778.501 256.28 781.413 251.095 783.509C245.946 785.568 239.998 786.598 233.251 786.598ZM302.977 785L271.763 675.909H296.958L315.015 751.708H315.921L335.843 675.909H357.416L377.285 751.868H378.243L396.301 675.909H421.496L390.282 785H367.803L347.029 713.675H346.177L325.456 785H302.977ZM433.415 785V703.182H456.107V785H433.415ZM444.814 692.635C441.44 692.635 438.546 691.516 436.131 689.279C433.752 687.006 432.562 684.29 432.562 681.129C432.562 678.004 433.752 675.323 436.131 673.086C438.546 670.813 441.44 669.677 444.814 669.677C448.188 669.677 451.064 670.813 453.443 673.086C455.858 675.323 457.065 678.004 457.065 681.129C457.065 684.29 455.858 687.006 453.443 689.279C451.064 691.516 448.188 692.635 444.814 692.635ZM496.976 675.909V785H474.284V675.909H496.976ZM545.302 786.332C539.088 786.332 533.459 784.734 528.417 781.538C523.409 778.306 519.432 773.565 516.485 767.315C513.573 761.03 512.117 753.324 512.117 744.197C512.117 734.822 513.626 727.028 516.645 720.813C519.663 714.563 523.676 709.893 528.683 706.804C533.725 703.679 539.248 702.116 545.249 702.116C549.83 702.116 553.647 702.898 556.701 704.46C559.791 705.987 562.277 707.905 564.159 710.213C566.076 712.486 567.532 714.723 568.527 716.925H569.219V675.909H591.858V785H569.485V771.896H568.527C567.461 774.169 565.952 776.424 563.999 778.661C562.081 780.863 559.578 782.692 556.488 784.148C553.434 785.604 549.706 786.332 545.302 786.332ZM552.493 768.274C556.151 768.274 559.24 767.28 561.762 765.291C564.319 763.267 566.272 760.444 567.621 756.822C569.006 753.2 569.699 748.956 569.699 744.091C569.699 739.226 569.024 735 567.674 731.413C566.325 727.827 564.372 725.057 561.815 723.104C559.258 721.151 556.151 720.174 552.493 720.174C548.765 720.174 545.622 721.186 543.065 723.21C540.508 725.234 538.573 728.04 537.259 731.626C535.945 735.213 535.288 739.368 535.288 744.091C535.288 748.849 535.945 753.058 537.259 756.715C538.608 760.337 540.544 763.178 543.065 765.238C545.622 767.262 548.765 768.274 552.493 768.274Z" fill="#242424"/>
</svg>
