<svg width="608" height="608" viewBox="0 0 608 608" fill="none" xmlns="http://www.w3.org/2000/svg">
<circle cx="304" cy="304" r="304" fill="#D9D9D9"/>
<path fill-rule="evenodd" clip-rule="evenodd" d="M111.875 224C176.42 224 234.595 251.308 275.474 295C290.734 311.58 294.1 332.724 297.416 353.55C301.639 380.08 305.781 406.094 334.323 421.5C335.348 430.191 335.875 439.034 335.875 448V480V576C335.875 593.7 321.575 608 303.875 608C286.175 608 271.875 593.7 271.875 576V480C148.175 480 47.8748 379.7 47.8748 256C47.8748 252.29 47.6243 248.729 47.3914 245.418C46.5133 232.933 45.885 224 59.8748 224H111.875Z" fill="#505050"/>
<path d="M334.323 421.5C334.023 418.95 333.679 416.413 333.294 413.89C326.323 368.279 305.593 327.192 275.474 295C290.734 311.58 294.1 332.724 297.416 353.55C301.639 380.08 305.781 406.094 334.323 421.5Z" fill="#505050"/>
<path d="M334.323 421.5C443.923 407 559.875 305.6 559.875 192C559.875 174.3 565.075 157 547.375 157L495.875 160C411.875 160 313.774 226.6 275.474 295C305.593 327.192 326.323 368.279 333.294 413.89C333.679 416.413 334.023 418.95 334.323 421.5Z" fill="#9CBF97"/>
</svg>
